<?xml version="1.0" encoding="UTF-8" standalone="no"?>
<!-- Generator: Adobe Illustrator 16.2.1, SVG Export Plug-In . SVG Version: 6.00 Build 0)  -->

<svg
   xmlns:dc="http://purl.org/dc/elements/1.1/"
   xmlns:cc="http://creativecommons.org/ns#"
   xmlns:rdf="http://www.w3.org/1999/02/22-rdf-syntax-ns#"
   xmlns:svg="http://www.w3.org/2000/svg"
   xmlns="http://www.w3.org/2000/svg"
   xmlns:sodipodi="http://sodipodi.sourceforge.net/DTD/sodipodi-0.dtd"
   xmlns:inkscape="http://www.inkscape.org/namespaces/inkscape"
   version="1.1"
   id="Layer_1"
   x="0px"
   y="0px"
   width="130.28"
   height="137.25"
   viewBox="0 0 130.28 137.25"
   enable-background="new 0 0 539.79 137.25"
   xml:space="preserve"
   inkscape:version="0.48.4 r9939"
   sodipodi:docname="angular.svg"><metadata
   id="metadata53"><rdf:RDF><cc:Work
       rdf:about=""><dc:format>image/svg+xml</dc:format><dc:type
         rdf:resource="http://purl.org/dc/dcmitype/StillImage" /></cc:Work></rdf:RDF></metadata><defs
   id="defs51" /><sodipodi:namedview
   pagecolor="#ffffff"
   bordercolor="#666666"
   borderopacity="1"
   objecttolerance="10"
   gridtolerance="10"
   guidetolerance="10"
   inkscape:pageopacity="0"
   inkscape:pageshadow="2"
   inkscape:window-width="640"
   inkscape:window-height="480"
   id="namedview49"
   showgrid="false"
   fit-margin-top="0"
   fit-margin-left="0"
   fit-margin-right="0"
   fit-margin-bottom="0"
   inkscape:zoom="0.59282316"
   inkscape:cx="269.89499"
   inkscape:cy="68.624997"
   inkscape:window-x="0"
   inkscape:window-y="0"
   inkscape:window-maximized="0"
   inkscape:current-layer="g5" />
<g
   id="g3"
   transform="translate(0,-2.7934448e-6)">
	<g
   id="g5">
		
		
		
		
		
		
		
		
		
		
		
		
		
		
		
		
		<polygon
   clip-rule="evenodd"
   points="65,137.25 120.03,106.92 130.28,22.32 64.93,0 0,22.72 10.26,107.33 "
   id="polygon39"
   style="fill:#b2b2b2;fill-rule:evenodd" />
		<polygon
   clip-rule="evenodd"
   points="114.25,102.87 123.81,27.21 64.78,7.2 64.78,130.1 "
   id="polygon41"
   style="fill:#b52e31;fill-rule:evenodd" />
		<polygon
   clip-rule="evenodd"
   points="64.78,7.19 7.29,27.57 16.08,103.23 64.78,130.1 "
   id="polygon43"
   style="fill:#e13235;fill-rule:evenodd" />
		<path
   clip-rule="evenodd"
   d="M 83.64,80.18 H 47.66 l -8.05,20.02 -14.98,0.271 40.15,-88.811 41.55,88.811 H 92.45 L 83.64,80.18 z M 78.46,68.32 64.89,40.14 52.94,68.32 h 25.52 z"
   id="path45"
   inkscape:connector-curvature="0"
   style="fill:#f2f2f2;fill-rule:evenodd" />
		<polygon
   clip-rule="evenodd"
   points="64.81,68.35 64.78,80.16 83.64,80.18 92.45,100.48 106.78,100.74 64.78,11.66 64.89,40.14 78.45,68.35 "
   id="polygon47"
   style="fill:#b2b2b2;fill-rule:evenodd" />
	</g>
</g>
</svg>