<?xml version="1.0" encoding="UTF-8" standalone="no"?>
<!-- Generator: Adobe Illustrator 16.0.0, SVG Export Plug-In . SVG Version: 6.00 Build 0)  -->

<svg
   xmlns:dc="http://purl.org/dc/elements/1.1/"
   xmlns:cc="http://creativecommons.org/ns#"
   xmlns:rdf="http://www.w3.org/1999/02/22-rdf-syntax-ns#"
   xmlns:svg="http://www.w3.org/2000/svg"
   xmlns="http://www.w3.org/2000/svg"
   xmlns:xlink="http://www.w3.org/1999/xlink"
   xmlns:sodipodi="http://sodipodi.sourceforge.net/DTD/sodipodi-0.dtd"
   xmlns:inkscape="http://www.inkscape.org/namespaces/inkscape"
   version="1.1"
   id="Layer_1"
   x="0px"
   y="0px"
   width="193.22322"
   height="70.000999"
   viewBox="0 0 193.22322 70.000999"
   enable-background="new 0 0 612 792"
   xml:space="preserve"
   inkscape:version="0.48.4 r9939"
   sodipodi:docname="gdg.svg"><metadata
   id="metadata618"><rdf:RDF><cc:Work
       rdf:about=""><dc:format>image/svg+xml</dc:format><dc:type
         rdf:resource="http://purl.org/dc/dcmitype/StillImage" /></cc:Work></rdf:RDF></metadata><defs
   id="defs616" /><sodipodi:namedview
   pagecolor="#ffffff"
   bordercolor="#666666"
   borderopacity="1"
   objecttolerance="10"
   gridtolerance="10"
   guidetolerance="10"
   inkscape:pageopacity="0"
   inkscape:pageshadow="2"
   inkscape:window-width="1280"
   inkscape:window-height="962"
   id="namedview614"
   showgrid="false"
   fit-margin-top="0"
   fit-margin-left="0"
   fit-margin-right="0"
   fit-margin-bottom="0"
   inkscape:zoom="2.3838384"
   inkscape:cx="143.76532"
   inkscape:cy="-22.859987"
   inkscape:window-x="-8"
   inkscape:window-y="-8"
   inkscape:window-maximized="1"
   inkscape:current-layer="Layer_1" />













<g
   id="g388"
   transform="translate(-273.44515,-112.027)">
	<path
   d="m 465.942,144.103 -17.498,-29.146 c -0.967,-1.608 -3.297,-2.93 -5.179,-2.93 h -0.058 l -167.681,0.004 c -1.748,0 -2.449,1.154 -1.768,2.608 l 6.646,11.067 c 0.06,0.111 0.088,0.252 0.147,0.371 l 10.824,18.016 c 0.968,1.617 0.968,4.252 0,5.86 l -6.394,10.752 c -0.061,0.087 -0.153,0.167 -0.219,0.26 l -10.893,18.132 c -0.968,1.608 -0.22,2.93 1.654,2.93 l 167.681,-0.004 h 0.058 c 1.882,0 4.212,-1.313 5.179,-2.929 l 6.673,-11.104 10.825,-18.029 c 0.972,-1.615 0.972,-4.25 0.003,-5.858 z"
   id="path390"
   inkscape:connector-curvature="0"
   style="fill:#f0f0f0" />
	<g
   id="g392">
		<defs
   id="defs394">
			<path
   id="SVGID_30_"
   d="m 465.942,144.103 -17.498,-29.146 c -0.967,-1.608 -3.297,-2.93 -5.179,-2.93 h -0.058 l -167.681,0.004 c -1.748,0 -2.449,1.154 -1.768,2.608 l 6.646,11.067 c 0.06,0.111 0.088,0.252 0.147,0.371 l 10.824,18.016 c 0.968,1.617 0.968,4.252 0,5.86 l -6.394,10.752 c -0.061,0.087 -0.153,0.167 -0.219,0.26 l -10.893,18.132 c -0.968,1.608 -0.22,2.93 1.654,2.93 l 167.681,-0.004 h 0.058 c 1.882,0 4.212,-1.313 5.179,-2.929 l 6.673,-11.104 10.825,-18.029 c 0.972,-1.615 0.972,-4.25 0.003,-5.858 z"
   inkscape:connector-curvature="0" />
		</defs>
		<clipPath
   id="SVGID_31_">
			<use
   xlink:href="#SVGID_30_"
   overflow="visible"
   id="use398"
   style="overflow:visible"
   x="0"
   y="0"
   width="612"
   height="792" />
		</clipPath>
		<g
   clip-path="url(#SVGID_31_)"
   id="g400">
			<path
   d="m 356.621,121.946 c 0.067,-0.028 0.235,0.042 0.281,0 0.15,-0.135 0.253,-0.58 0.427,-0.847 0.236,-0.363 0.489,-0.377 0.561,-0.705 0.064,-0.266 -0.252,-0.985 -0.134,-1.55 0.039,-0.224 0.275,-0.327 0.418,-0.56 0.265,-0.447 0.443,-0.773 0.703,-1.268 0.28,-0.522 0.348,-1.312 0.142,-2.259 0.208,-0.167 0.396,-0.352 0.566,-0.563 -0.295,-1.22 -0.006,-2.403 0.563,-3.383 0.124,-0.219 0.201,-0.459 0.281,-0.563 0.465,-0.651 1.596,-0.975 1.552,-1.975 -0.417,-0.717 -1.496,-0.588 -2.259,-0.275 -0.126,-0.253 -0.339,-0.418 -0.422,-0.712 0.111,-0.407 0.667,-0.361 0.56,-0.983 -0.2,-0.403 -0.639,-0.528 -0.982,-0.844 -0.58,-0.54 -0.801,-1.023 -1.69,-1.268 -0.265,-0.075 -0.771,-0.159 -0.983,-0.141 -0.284,0.014 -0.737,0.461 -1.271,0.562 -0.383,0.072 -0.801,-0.081 -0.986,0 -0.559,0.247 -0.822,1.014 -1.407,1.264 -0.478,0.211 -0.763,-0.204 -1.129,0.288 -0.355,-0.584 -1.237,-0.642 -2.256,-0.568 -0.069,-1.852 -1.674,-2.175 -2.958,-2.818 h -2.25 c -0.702,0.759 -2.229,0.688 -3.386,0.991 -0.409,0.244 -0.354,0.955 -0.706,1.268 -0.281,-0.146 -0.218,-0.626 -0.699,-0.568 -1.47,0.651 -1.959,2.274 -2.121,4.229 0.13,0.58 1.047,0.371 1.134,0.987 -0.233,0.755 -1.023,0.951 -1.837,1.126 -0.702,-0.048 -0.507,-0.999 -1.406,-0.847 -0.924,0.739 1.082,1.751 -0.146,2.395 -0.681,-0.336 -1.022,-0.979 -0.698,-1.967 -0.491,-0.62 -1.138,-0.229 -2.116,-0.288 -0.424,0.813 0.318,1.275 0.421,1.975 0.672,0.085 1.245,0.26 1.411,0.844 0.441,0.072 0.497,-0.252 0.982,-0.133 0.549,1.129 2.853,1.723 4.229,1.12 0.175,-0.398 0.175,-0.872 0,-1.263 -0.825,-0.616 -2.311,0.288 -2.531,-0.849 0.79,-0.463 1.177,0.561 2.251,0.28 0.339,0.407 0.813,0.465 1.409,0.28 0.412,-0.584 0.554,-1.22 1.126,-1.687 0.179,-0.146 0.578,-0.125 0.845,-0.28 0.233,-0.135 0.292,-0.432 0.566,-0.428 0.209,-0.4 0.257,-0.963 0.56,-1.267 1.11,-0.115 1.578,-0.864 2.54,-1.125 0.157,0.405 0.253,0.872 0.28,1.409 -0.689,0.667 -2.208,0.51 -3.1,0.982 0.358,1.169 -0.372,2.603 0.425,3.382 1.165,0.268 1.988,0.012 2.536,0.848 0.292,0.447 0.475,1.798 0.427,2.821 -0.024,0.403 -0.275,0.828 -0.288,1.268 -0.013,0.407 0.182,0.868 0.142,1.124 -0.065,0.421 -0.548,0.743 -0.422,1.127 -0.056,0.576 0.601,0.435 0.706,0.846 -0.387,0.54 -1.029,1.12 -1.129,2.116 -0.074,0.751 0.312,2.421 0.564,3.237 0.205,0.691 0.262,1.115 0.704,1.411 0.142,0.089 0.39,0.027 0.563,0.141 0.367,0.234 0.537,0.761 0.988,0.566 0.673,-0.438 0.813,-1.264 1.267,-1.975 0.063,-0.104 0.057,-0.313 0.144,-0.419 0.038,-0.063 0.248,-0.092 0.275,-0.147 0.223,-0.401 0.134,-0.914 0.566,-1.264 0.374,-0.308 1.408,-0.26 2.115,-0.711 0.545,-0.342 0.833,-1.097 1.548,-1.404 0.525,-0.23 1.391,-0.149 1.976,-0.423 0.063,-0.036 0.091,-0.261 0.142,-0.28 0.072,-0.032 0.213,0.044 0.28,0 0.05,-0.036 0.094,-0.256 0.136,-0.28 z"
   id="path402"
   inkscape:connector-curvature="0"
   style="fill:#e0e0e0" />
			<path
   d="m 392.975,107.289 c 0.087,0.052 0.187,0.238 0.285,0.286 0.849,0.376 1.437,0.022 2.112,-0.143 0.261,0.355 0.261,0.963 0.846,0.987 0.479,-0.179 0.81,-0.511 0.988,-0.987 -0.282,-0.316 -0.544,-0.811 -1.131,-0.847 -0.431,-0.027 -0.561,0.144 -0.982,0.282 -0.46,-0.62 -0.981,-1.182 -1.976,-1.27 -0.261,-0.532 -0.552,-1.037 -1.406,-0.983 -0.533,0.695 -0.305,1.552 0.139,2.11 0.101,0.129 0.952,0.456 1.125,0.565 z"
   id="path404"
   inkscape:connector-curvature="0"
   style="fill:#e0e0e0" />
			<path
   d="m 334.217,108.561 c 0.328,0 0.66,0 0.988,0 0.074,0.439 0.25,0.787 0.423,1.127 0.391,0.103 0.43,-0.32 0.564,-0.568 0.577,-1.063 -0.158,-1.391 -0.849,-1.83 0.039,-0.592 -0.408,-0.715 -0.565,-1.122 -1.454,-0.136 -1.223,1.885 -0.561,2.393 z"
   id="path406"
   inkscape:connector-curvature="0"
   style="fill:#e0e0e0" />
			<path
   d="m 412.563,106.868 c -0.39,-0.943 -2.413,-0.544 -3.096,-0.143 -0.206,2.394 2.939,1.818 3.096,0.143 z"
   id="path408"
   inkscape:connector-curvature="0"
   style="fill:#e0e0e0" />
			<path
   d="m 414.534,106.586 c -0.047,-0.284 -0.51,-0.338 -0.982,-0.141 -0.029,0.951 1.058,0.548 0.982,0.141 z"
   id="path410"
   inkscape:connector-curvature="0"
   style="fill:#e0e0e0" />
			<path
   d="m 330.694,108.134 c 0.371,-0.146 0.632,-0.401 0.703,-0.845 0.337,-0.133 0.695,-0.248 0.566,-0.844 -0.234,0 -0.468,0 -0.704,0 0.02,0.727 -0.927,0.486 -1.268,0.844 -0.027,0.547 0.227,0.811 0.703,0.845 z"
   id="path412"
   inkscape:connector-curvature="0"
   style="fill:#e0e0e0" />
			<path
   d="m 381.566,108.843 c 0.338,0.038 0.264,-0.079 0.563,-0.282 0.51,-0.354 0.485,-0.371 0.703,-0.848 0.118,-0.249 0.384,-0.336 0.28,-0.561 -0.407,-0.352 -0.703,0.607 -1.268,0.561 -0.288,-0.181 -0.252,-0.682 -0.846,-0.561 -0.604,0.832 -0.055,1.612 0.568,1.691 z"
   id="path414"
   inkscape:connector-curvature="0"
   style="fill:#e0e0e0" />
			<path
   d="m 326.896,109.688 c -0.107,1.043 0.438,1.438 0.84,1.971 1.3,-0.32 3.107,0.308 3.386,-0.845 0.105,-0.479 -0.214,-0.34 -0.428,-0.707 -0.142,-0.236 0.036,-0.724 -0.418,-0.699 -0.589,-0.113 -0.269,0.675 -0.85,0.56 -0.422,-0.327 -0.596,-0.903 -0.846,-1.406 0.119,-0.397 0.458,-0.58 0.424,-1.128 -0.604,-0.428 -1.039,-0.261 -1.549,0 -0.557,0.284 -1.557,0.6 -1.557,1.128 0.211,0.501 0.832,0.588 0.998,1.126 z"
   id="path416"
   inkscape:connector-curvature="0"
   style="fill:#e0e0e0" />
			<path
   d="m 379.734,109.262 c 0,-0.277 0,-0.562 0,-0.842 -0.404,-0.328 -1.064,-0.022 -1.412,0.141 0.128,0.612 0.736,1.054 1.412,0.701 z"
   id="path418"
   inkscape:connector-curvature="0"
   style="fill:#e0e0e0" />
			<path
   d="m 435.394,109.828 c -0.732,-0.421 -1.35,0.125 -1.836,0.139 -0.43,0.013 -0.928,-0.208 -1.405,-0.279 -0.324,-0.048 -0.632,0.035 -0.988,0 -0.709,-0.08 -1.437,-0.355 -2.113,-0.426 -1.106,-0.103 -1.59,0.362 -2.393,0.426 -0.17,0.21 -0.181,0.578 -0.427,0.707 -0.549,-0.107 -0.872,0.396 -1.267,0.561 -0.285,0.123 -0.648,0.162 -0.984,0.285 -0.315,0.104 -0.565,0.386 -0.991,0.274 -0.588,-0.288 -0.942,-1.053 -1.688,-1.12 -0.704,-0.063 -1.306,0.676 -1.972,0.703 -0.229,0.008 -0.36,-0.079 -0.569,-0.143 -0.193,-0.064 -0.576,-0.082 -0.698,-0.142 -0.427,-0.187 -0.537,-0.628 -1.13,-0.707 -0.428,-0.048 -0.813,0.225 -1.267,0.288 -0.661,0.087 -1.234,-0.177 -1.831,0.137 -0.362,0.436 0.04,1.006 0,1.55 -0.514,0.24 -1.054,0.455 -1.692,0.568 -0.44,0.163 -0.399,0.816 -0.984,0.84 -1.152,-0.769 -1.247,-2.603 -3.669,-2.107 -0.258,0.396 -0.258,1.049 -0.842,1.122 -0.635,0.034 -0.903,-0.392 -1.554,-0.423 -0.752,-0.036 -1.688,0.727 -2.395,0 0.189,-2.153 -1.366,-3.598 -3.238,-2.819 -0.69,-0.202 -1.012,-0.771 -1.833,-0.842 -0.016,0.219 -0.359,0.109 -0.28,0.423 -0.501,0.461 0.129,1.152 0,1.552 -0.214,0.638 -0.746,0.711 -1.548,0.846 -0.689,1.113 -2.428,1.544 -1.836,3.519 -0.284,0.274 -0.929,0.201 -0.988,0.705 -0.323,0.147 -0.287,0.649 -0.274,1.123 -0.638,0.266 -0.974,0.826 -1.696,0.991 -0.549,-0.388 -0.761,-1.115 -1.687,-1.129 -0.134,0.576 -0.461,1.979 -0.426,2.535 0.036,0.58 0.682,1.087 0.283,1.552 -0.859,-0.165 -1.341,-0.309 -2.253,-0.142 -0.084,0.248 0.168,0.826 -0.143,0.849 -0.651,0.56 -1.546,0.194 -2.252,0.427 -0.056,0.01 -0.217,0.24 -0.288,0.276 -0.182,0.096 -0.403,0.023 -0.558,0.141 -0.445,0.328 -0.505,1.055 -1.133,1.127 -0.273,-0.336 -0.186,-1.035 -0.846,-0.983 -0.577,0.276 0.375,1.579 -0.56,1.687 -0.613,-0.044 -0.534,-0.775 -0.847,-1.131 -1.098,-0.584 -2.219,-1.16 -3.664,-1.404 -0.39,-0.442 -0.679,-0.874 -1.125,-0.987 -1.322,-0.327 -2.299,0.549 -2.82,0.849 -0.399,0.227 -0.611,0.25 -0.846,0.427 -0.288,0.209 -0.529,0.394 -0.706,0.561 -0.479,0.442 -0.363,0.983 -0.561,1.545 -0.083,0.236 -0.422,0.505 -0.565,0.845 -0.159,0.388 -0.118,0.836 -0.281,1.13 -0.026,0.046 -0.24,0.094 -0.284,0.14 -0.098,0.113 -0.042,0.306 -0.138,0.423 -0.726,0.906 -1.539,1.035 -2.113,1.834 0.045,1.128 0.119,2.227 0.7,2.818 0.912,0.207 0.955,-0.461 1.69,-0.421 0.197,0.272 0.137,0.803 0.288,1.124 -0.209,-0.204 -0.925,-0.204 -1.135,0 -0.319,0.599 0.083,1.079 0,1.834 -0.354,0.252 -0.78,0.439 -1.264,0.561 -0.374,0.379 -0.564,0.943 -1.129,1.126 -0.059,-0.699 -1.327,-2.03 -1.832,-3.097 -0.143,-0.313 0.024,-0.72 -0.139,-0.985 -0.273,-0.455 -0.924,-0.489 -1.271,-0.286 -0.395,0.268 -0.261,1.051 -0.28,1.694 -0.968,0.296 -1.828,1.295 -1.411,2.531 0.818,0.166 1.028,-0.284 1.554,-0.42 0.201,-0.452 0.06,-1.251 0.702,-1.267 0.273,0.582 -0.494,1.702 0,2.536 0.475,0.09 1.312,-0.179 1.553,0.142 -0.27,0.482 -0.95,0.562 -1.41,0.846 0.027,0.934 1.362,1.156 1.126,2.116 -0.321,1.343 -1.986,0.216 -3.098,0.842 -0.352,0.284 -0.078,0.791 -0.142,1.27 -0.102,0.771 -0.462,1.412 -0.143,1.969 0.482,0.544 1.171,0.3 1.269,0.987 0.111,0.757 -0.767,0.936 -1.411,1.694 -0.296,0.352 -0.33,1.417 -0.417,1.548 -0.285,0.425 -0.999,0.636 -1.409,0.987 -0.486,0.411 -0.803,0.974 -1.126,1.554 -0.215,0.371 -0.52,0.888 -0.569,1.263 -0.079,0.597 0.201,1.536 0.142,2.257 -0.023,0.251 -0.248,0.495 -0.275,0.703 -0.257,1.522 0.646,1.778 1.263,2.541 0.229,0.284 0.258,0.445 0.424,0.701 0.328,0.499 0.546,0.67 0.986,0.985 0.419,0.3 0.589,0.489 0.982,0.711 0.956,0.517 1.146,0.003 2.256,0 0.395,-0.006 0.818,0.182 1.13,0.134 0.305,-0.04 0.629,-0.309 0.986,-0.424 1.402,-0.452 1.645,-0.192 2.537,0.708 0.635,-0.024 1.256,-0.032 1.408,0.423 0.356,0.676 -0.321,1.418 -0.145,2.255 0.157,0.703 0.936,1.082 1.271,1.69 0.181,0.328 0.451,0.908 0.568,1.406 0.086,0.421 0.209,1.264 0.135,1.692 -0.052,0.326 -0.443,0.471 -0.562,0.701 -0.078,0.155 -0.109,0.465 -0.142,0.568 -0.358,1.16 0.043,1.973 0.422,2.819 0.182,0.411 0.462,0.822 0.564,1.268 0.13,0.569 0.06,1.07 0.139,1.547 0.139,0.787 0.872,1.365 1.13,2.118 0.249,0.729 -0.012,1.567 0.707,2.109 1.015,-0.146 2.137,-0.115 2.954,-0.28 0.17,-0.037 0.967,-0.407 0.991,-0.425 0.403,-0.386 0.774,-0.676 1.269,-1.268 0.647,-0.769 1.247,-1.492 1.405,-2.533 0.507,-0.463 0.933,-0.381 1.13,-0.989 0.176,-0.552 -0.193,-1.324 0,-1.831 0.331,-0.868 1.974,-1.148 2.392,-1.83 0.413,-0.657 0.345,-2.304 0.143,-2.816 -0.166,-0.417 -0.379,-0.858 -0.419,-1.273 -0.078,-0.703 0.146,-1.152 0.276,-1.41 0.316,-0.616 0.393,-0.781 0.846,-1.264 0.332,-0.352 0.727,-0.814 0.983,-0.987 0.817,-0.543 1.784,-1.375 2.121,-2.108 0.021,-0.058 0.248,-0.087 0.276,-0.143 0.438,-0.776 0.876,-1.738 0.99,-2.682 -0.872,-0.924 -3.028,0.967 -3.525,-0.423 0.253,-0.441 0.952,-0.474 1.551,-0.702 0.634,-0.246 1.478,-0.562 1.975,-0.846 0.14,-0.084 0.175,-0.217 0.276,-0.28 0.55,-0.346 1.084,-0.403 1.553,-0.707 0.074,-0.048 0.197,-0.219 0.281,-0.284 0.43,-0.348 0.679,-0.612 0.987,-1.126 0.26,-0.43 0.481,-0.779 0.428,-1.127 -0.14,-0.862 -1.139,-0.48 -1.273,-1.548 1.438,0.237 2.521,0.267 4.088,0.14 0.734,0.628 1.527,1.2 1.97,2.113 0.523,0.046 0.969,0.161 1.272,0.422 0.052,1.255 0.659,2.117 0.987,2.82 0.091,0.205 0.059,0.354 0.137,0.564 0.072,0.179 0.215,0.276 0.281,0.421 0.319,0.655 0.553,1.285 0.989,1.83 0.524,0.103 0.606,-0.241 1.129,-0.14 -0.016,0.674 0.173,1.143 0.706,1.27 0.206,-0.131 0.688,-0.707 0.276,-0.985 0.078,-0.642 -0.75,-0.377 -0.703,-0.985 -0.142,-0.498 0.139,-1.402 0.139,-1.552 0,-0.047 -0.166,-0.31 -0.139,-0.565 0.063,-0.511 1.261,-1.544 1.69,-1.971 1.023,-1.023 1.521,-1.719 2.963,-1.688 0.773,0.769 1.465,1.629 1.828,2.811 0.427,0.201 0.508,-0.063 1.129,0 0.462,0.715 0.773,1.569 0.987,2.539 0.544,-0.06 0.388,-0.837 1.125,-0.707 1.341,0.467 0.953,1.563 2.118,1.553 0.407,-0.006 0.837,-0.565 0.982,-0.705 0.376,-0.35 0.656,-0.588 0.708,-0.991 0.051,-0.427 -0.323,-1.44 -0.426,-1.543 -0.061,-0.064 -0.08,-0.227 -0.144,-0.284 -0.253,-0.249 -0.636,-0.32 -0.841,-0.564 -0.728,-0.851 -0.285,-1.975 0.841,-1.832 0.413,0.309 -0.458,1.277 0.428,1.27 0.619,-0.037 0.27,-1.041 0.559,-1.406 1.135,-0.484 2.152,-0.741 2.821,-1.408 0.643,-0.647 0.635,-0.893 0.986,-1.834 0.329,-0.872 0.474,-1.136 0.277,-1.973 -0.056,-0.256 -0.074,-0.701 -0.139,-0.85 -0.119,-0.313 -0.54,-0.612 -0.707,-0.845 -0.129,-0.185 -0.197,-0.443 -0.277,-0.563 -0.22,-0.315 -0.271,-0.165 -0.284,-0.56 -0.012,-0.566 0.979,-1.027 0.562,-1.409 -0.581,-0.407 -1.395,0.278 -1.686,-0.425 0,-0.705 0.446,-0.962 0.845,-1.27 0.454,0.513 0.787,0.596 1.687,0.426 0.315,0.671 0.904,1.157 1.275,1.829 0.192,0.361 0.105,0.896 0.564,1.128 0.415,-0.051 0.712,-0.224 0.98,-0.423 0.181,-1.537 -0.873,-1.848 -1.27,-2.818 0.444,-0.549 0.479,-1.492 0.846,-2.114 0.341,-0.229 0.909,-0.225 1.271,-0.425 0.388,-0.511 0.735,-1.304 0.988,-2.109 0.217,-0.72 0.569,-1.924 0.559,-2.539 -0.002,-0.457 -0.527,-0.866 -0.136,-1.27 0.166,0.729 0.379,1.408 0.986,1.69 1.078,-1.484 -0.959,-2.551 -1.134,-4.082 -1.444,-0.401 -3.214,0.023 -3.521,-1.131 -0.024,-0.117 0.225,-1.204 0.283,-1.41 0.017,-0.05 0.266,-0.205 0.281,-0.28 0.125,-0.469 0.066,-1.381 0.285,-1.692 0.422,-0.612 1.16,-0.469 1.827,-0.703 0.511,-0.175 0.743,-0.601 1.128,-0.563 0.614,0.028 0.951,0.495 1.555,0.144 0.524,-0.593 -0.315,-2.555 0.706,-2.962 0.704,-0.142 0.686,0.438 1.264,0.423 0.367,-0.067 0.475,-0.774 0.846,-0.423 -0.313,0.884 -0.099,1.877 -0.281,2.818 -0.082,0.439 -0.37,0.843 -0.422,1.266 -0.225,1.84 0.526,2.566 1.126,3.526 0.426,0.683 0.773,1.56 1.409,1.831 0.704,-0.548 0.402,-1.859 0.564,-2.676 0.044,-0.219 0.28,-0.359 0.28,-0.566 0.008,-0.214 -0.232,-0.6 -0.28,-0.985 -0.054,-0.423 0.067,-0.926 0,-1.13 -0.157,-0.455 -0.795,-0.767 -0.987,-1.266 -0.244,-0.622 0.067,-1.061 -0.28,-1.552 0.633,-0.592 1.3,-1.14 2.398,-1.267 0.212,-0.912 0.452,-1.796 0.841,-2.535 0.255,-0.355 0.959,-0.257 0.99,-0.851 -0.173,-1.064 -1.306,-1.195 -1.552,-2.107 -0.047,-0.179 0.142,-0.596 0.14,-0.847 0,-0.387 -0.187,-0.544 -0.14,-0.987 0.485,-0.625 1.312,-0.073 2.113,-0.417 0.337,-0.594 -0.226,-0.83 -0.285,-1.41 0.078,-0.74 -0.127,-1.189 -0.412,-1.558 z m -56.648,14.653 c 0.466,0.146 1.153,0.071 1.551,0.283 0.01,0.76 -0.885,0.62 -1.551,0.704 -0.202,-0.187 -0.202,-0.792 0,-0.987 z m 0.142,13.806 c 0.723,-0.111 0.573,0.652 1.121,0.712 0.649,0.027 0.649,-0.58 0.85,-0.991 0.142,0 0.285,0 0.427,0 -0.079,1.537 1.588,1.326 1.971,2.397 -0.488,1.184 -1.553,0.292 -2.397,0.141 -0.959,-0.173 -1.686,0.32 -2.815,0.424 -0.819,-0.766 -0.063,-2.374 0.843,-2.683 z m -6.765,-6.339 c -0.047,-0.947 0.293,-1.347 0.564,-2.249 0.02,-0.629 -0.574,-0.854 -0.564,-1.412 0.012,-0.805 0.656,-1.141 1.268,-1.552 0.117,-0.584 0.106,-1.301 0.565,-1.551 0.229,-0.036 0.244,0.135 0.421,0.143 0.159,1.053 -0.723,1.061 -0.986,1.69 -0.035,1.357 0.323,2.311 1.271,2.682 -0.074,1.273 -1.22,1.78 -0.705,3.238 -0.416,0.302 -0.792,-0.052 -1.269,0 -0.695,0.078 -1.433,0.835 -1.975,0.142 0.162,-0.687 1.075,-0.62 1.41,-1.131 z m 6.199,14.373 c -0.631,-0.028 -1.121,-0.259 -1.689,-0.419 -0.592,-0.173 -1.3,-0.476 -1.552,-0.426 -0.625,0.121 -0.628,0.705 -1.125,1.129 -0.541,-0.063 -1.028,-0.203 -1.411,-0.564 -0.449,-0.436 -1.509,-0.453 -2.255,-0.983 0.083,-0.786 -0.064,-1.347 -0.418,-1.694 -1.182,0.065 -2.113,-0.024 -3.104,0.141 -1.044,0.179 -2.031,1.012 -3.102,0.563 0.485,-0.6 1.214,-0.407 1.689,-0.987 0.219,-0.254 0.128,-0.799 0.285,-1.122 0.19,-0.378 0.6,-0.545 0.845,-0.847 0.301,-0.369 0.34,-0.784 0.707,-0.985 0.53,-0.271 1.573,-0.023 1.833,-0.566 1.047,0.551 1.604,1.59 2.815,1.977 0.254,0.261 0.379,0.65 0.703,0.843 1.557,-1.25 -1.094,-1.855 -1.409,-2.956 0.023,-0.167 0.257,-0.123 0.423,-0.147 0.434,0.695 1.418,0.843 1.974,1.411 -0.003,0.331 0.24,0.419 0.139,0.85 0.494,0.221 0.826,1.941 1.552,1.969 1.19,0.044 0.558,-1.041 0.703,-1.835 0.371,-0.013 0.494,-0.211 0.707,0 0.131,0.143 0.051,0.552 0.139,0.709 0.107,0.177 0.177,0.354 0.288,0.566 0.213,0.423 0.394,0.467 0.703,0.844 1.452,-0.225 2.2,0.483 3.381,0.142 0.237,0.818 -0.151,1.676 -0.565,2.252 -0.833,-0.177 -1.441,0.179 -2.256,0.135 z m 6.623,8.175 c -0.338,-0.004 -0.592,-0.084 -0.845,-0.28 -0.474,-0.367 -0.474,-0.87 -0.845,-1.41 -0.154,-0.217 -0.478,-0.392 -0.561,-0.564 -0.146,-0.292 -0.136,-0.783 -0.288,-1.129 -0.171,-0.385 -0.494,-0.621 -0.704,-0.985 -0.06,-0.104 0.056,-0.312 0,-0.427 -0.095,-0.19 -0.727,-0.576 -0.56,-1.264 0.142,0 0.275,0 0.423,0 0.288,0.336 0.402,0.716 0.702,1.131 0.235,0.327 0.672,0.6 0.845,0.983 0.096,0.214 0.02,0.494 0.143,0.703 0.613,1.024 1.945,1.889 1.69,3.242 z m 0.842,-15.919 c 0.521,-0.473 0.864,-1.114 1.979,-0.993 0.389,0.662 -0.481,0.686 -0.427,1.415 -0.015,0.546 0.604,0.818 0.846,1.268 0.163,0.292 0.163,0.699 0.284,0.982 0.257,0.622 0.909,1.19 0.561,1.83 -0.667,0.421 -1.425,-0.119 -1.829,-0.419 0.423,-2.255 -1.244,-2.422 -1.414,-4.083 z m 3.811,11.123 c -0.71,-0.002 -1.504,-1.5 -1.974,-1.967 -0.162,-0.208 -0.162,-0.357 0,-0.564 0.142,0 0.284,0 0.419,0 0.473,0.983 1.603,1.31 2.682,1.687 -0.379,0.51 -0.668,0.854 -1.127,0.844 z"
   id="path420"
   inkscape:connector-curvature="0"
   style="fill:#e0e0e0" />
			<path
   d="m 413.693,109.544 c 0.083,-0.504 -0.42,-0.431 -0.845,-0.425 -0.193,0.636 0.568,0.688 0.845,0.425 z"
   id="path422"
   inkscape:connector-curvature="0"
   style="fill:#e0e0e0" />
			<path
   d="m 370.29,114.62 c 0.925,-0.062 0.528,-1.442 1.269,-1.695 0.185,0.38 0.304,0.825 0.986,0.708 0.53,-0.948 -0.876,-1.063 -0.845,-1.975 0.766,-0.221 1.572,-0.396 1.552,-1.407 -0.383,-0.514 -1.347,-0.44 -2.255,-0.423 -0.382,0.274 -0.644,0.674 -1.125,0.847 -0.341,0.185 -0.977,0.056 -1.271,0.28 -0.455,1.103 0.501,1.781 0.983,2.394 0.02,0.645 0.344,0.979 0.706,1.271 z"
   id="path424"
   inkscape:connector-curvature="0"
   style="fill:#e0e0e0" />
			<path
   d="m 348.873,163.511 c -0.39,-0.288 -0.876,-0.745 -1.126,-0.845 -0.639,-0.244 -1.465,-0.081 -2.117,-0.277 -0.292,-0.094 -0.537,-0.432 -0.84,-0.563 -0.376,-0.167 -0.734,-0.056 -0.988,-0.143 -0.893,-0.318 -0.813,-0.868 -1.128,-1.552 -0.151,-0.328 -0.364,-0.783 -0.566,-0.987 -0.05,-0.056 -0.604,-0.449 -0.845,-0.561 -0.487,-0.223 -0.824,-0.079 -1.409,-0.143 -0.605,-0.062 -1.293,-1.008 -1.687,-1.268 -0.348,-0.23 -0.645,-0.765 -0.845,-0.847 -0.685,-0.262 -1.687,0.096 -2.256,0 -0.632,-0.104 -0.833,-0.492 -1.271,-0.563 -1.106,-0.186 -1.86,0.043 -2.256,0.279 -0.402,0.251 -0.582,0.761 -1.264,0.989 -0.237,0.078 -0.545,-0.089 -0.708,0.142 l -0.109,0.107 c -0.067,-0.017 -0.138,-0.022 -0.209,-0.004 l -0.104,-0.104 c -1.01,-0.147 -1.521,-0.428 -1.69,-1.268 -0.107,-0.538 0.459,-1.146 0.143,-1.69 -0.288,-0.608 -1.592,-0.201 -1.976,-0.707 -0.334,-0.749 0.64,-1.302 0.428,-2.396 -1.461,-0.586 -1.461,0.729 -2.117,1.129 -1.567,0.955 -2.769,-0.568 -2.536,-2.392 0.04,-0.344 0.494,-2.028 0.562,-2.116 0.236,-0.313 1.46,-0.83 1.695,-0.848 0.378,-0.015 0.821,0.339 1.263,0.283 0.376,-0.137 0.647,-0.488 1.134,-0.563 0.758,-0.115 1.643,0.256 2.109,0.563 0.153,0.831 0.153,1.822 1.13,1.83 0.781,-0.93 -0.357,-1.821 0,-2.958 0.073,-0.242 0.338,-0.375 0.561,-0.564 0.465,-0.393 0.825,-0.665 1.271,-0.985 0.275,-0.2 0.604,-0.288 0.698,-0.425 0.32,-0.447 0.206,-1.091 0.426,-1.55 0.135,-0.28 0.479,-0.544 0.704,-0.848 0.584,-0.759 0.849,-1.079 1.828,-1.264 0.261,-0.807 0.621,-1.623 1.552,-1.69 0.471,-0.036 0.711,0.236 1.272,0.284 0.644,-0.439 1.686,-0.478 1.966,-1.268 -0.719,-0.133 -1.049,-0.144 -1.401,-0.707 -0.114,-0.179 0.074,-0.656 0,-0.987 -0.099,-0.416 -0.767,-0.453 -0.285,-0.703 0.72,0.158 1.095,0.308 1.687,0.137 0.494,-0.133 1.193,-0.536 1.557,-0.282 -0.106,0.604 -0.659,0.757 -0.565,1.554 0.66,0.321 1.358,0.613 2.395,0.566 0.478,-1.047 -0.56,-1.532 -0.847,-2.263 0.403,-0.896 0.321,-1.644 0,-2.108 -0.098,-0.143 -0.201,-0.471 -0.279,-0.566 -0.336,-0.383 -0.873,-0.477 -1.125,-0.98 -0.261,-0.524 -0.182,-1.111 -0.285,-1.554 -0.104,-0.463 -0.174,-0.864 -0.424,-1.41 -0.998,-0.157 -0.742,0.951 -1.827,0.707 -0.399,-0.43 -0.21,-0.9 -0.146,-1.552 -0.669,-0.874 -1.531,-2.176 -3.097,-1.692 -0.382,0.507 -0.11,1.097 -0.28,1.692 -0.126,0.445 -0.521,0.78 -0.563,1.271 -0.049,0.484 0.296,1.083 0.137,1.548 -0.197,0.6 -1.184,0.721 -1.548,1.406 -0.423,0.794 0.278,1.251 -0.564,1.831 -0.778,-0.152 -0.188,-1.687 -0.564,-2.248 -0.138,-0.263 -0.466,-0.161 -0.703,-0.284 -0.688,-0.362 -1.247,-1.17 -1.832,-1.554 -0.096,-0.063 -0.187,-0.084 -0.281,-0.144 -0.549,-0.319 -0.655,-0.54 -0.845,-1.122 -0.492,-1.504 0.653,-2.199 1.548,-2.96 0.698,-0.59 1.417,-1.281 2.394,-1.264 0.379,0.134 0.352,0.682 0.707,0.845 0.679,-0.207 1.117,-0.269 1.689,-0.288 0.124,-0.914 -0.841,-1.354 -0.561,-1.967 0.861,-0.415 1.43,-0.703 1.688,-1.554 0.2,-0.64 0.473,-1.277 0.849,-1.69 0.964,-0.169 1.216,0.378 1.41,0.985 -0.008,0.608 -0.747,0.477 -0.569,1.275 0.624,0.181 1.02,-0.667 1.271,0 -0.095,0.983 -0.881,1.279 -1.405,1.828 -0.558,0.012 -1.24,-0.109 -1.129,0.565 -0.06,0.757 1.181,0.225 1.552,0.557 0.302,0.319 0.326,1.051 0.698,1.412 0.266,0.253 0.964,0.578 1.271,0.561 0.261,-0.008 1.008,-0.449 1.126,-0.561 0.635,-0.572 0.075,-1.452 -0.144,-2.257 0.531,-0.014 0.432,0.608 1.132,0.426 0.615,-0.384 0.971,-0.592 0.986,-1.129 0.007,-0.363 -0.441,-0.667 -0.704,-0.985 -0.322,-0.383 -0.665,-0.625 -0.705,-0.987 0.055,-0.556 0.312,-0.836 0.279,-1.268 -0.075,-1.074 -1.374,-1.622 -1.832,-2.682 -0.193,-0.455 -0.304,-0.888 -0.276,-1.543 -0.427,-0.624 -1.366,-0.396 -2.121,-0.564 -0.284,-0.067 -0.502,-0.225 -0.703,-0.284 -1.761,-0.564 -2.819,1.416 -2.674,3.242 0.257,0.409 0.747,0.6 0.702,1.268 -0.026,0.411 -0.409,1.015 -0.982,0.987 -0.193,-0.576 -0.874,-1.099 -0.991,-1.828 -0.028,-0.21 0.127,-0.609 0.143,-0.85 0.039,-0.604 -0.091,-1.26 0.142,-1.832 0.763,-0.507 2.249,-0.294 1.975,-1.834 -0.563,-0.492 -1.374,-0.446 -1.975,0 -0.649,-1.028 -1.375,-0.52 -1.975,0 -0.687,0.603 -0.798,0.716 -0.56,1.411 0.042,0.129 0.042,0.401 0.142,0.566 0.182,0.325 0.671,0.396 0.702,0.844 0.02,0.278 -0.083,0.399 -0.142,0.564 -0.271,0.797 -0.667,0.797 -1.41,1.13 -0.269,0.485 -0.079,1.027 -0.703,1.264 -0.688,0.256 -1.722,-0.207 -1.69,-0.989 1.048,0.021 1.856,-0.544 1.972,-1.266 0.044,-0.258 -0.195,-0.338 -0.281,-0.56 -0.265,-0.71 -0.047,-1.681 0.138,-2.118 0.229,-0.517 0.897,-0.789 0.847,-1.55 -0.89,-0.552 -1.398,0.636 -2.252,0.561 -0.965,-0.077 -1.283,-0.922 -1.405,-2.255 -0.906,-0.717 -1.896,-1.093 -2.544,-0.417 -0.694,0.723 -2.277,1.911 -1.687,2.958 0.435,0.419 1.387,-0.144 1.687,0.141 -0.226,0.535 0.1,1.115 0,1.55 -0.032,0.157 -0.336,0.388 -0.418,0.564 -0.136,0.276 0.031,0.799 -0.426,0.707 -0.661,-0.044 -0.83,-0.582 -1.128,-0.987 -0.986,-0.141 -1.617,-0.636 -2.112,-1.271 -1.379,-0.012 -2.598,0.129 -3.802,0.284 -0.297,-0.272 -0.537,-0.592 -0.708,-0.987 -0.506,-0.052 -0.628,-0.596 -0.987,-0.847 -0.289,-0.2 -0.853,-0.296 -1.268,-0.56 -0.059,-0.044 -0.075,-0.232 -0.143,-0.288 -0.113,-0.088 -0.313,-0.06 -0.423,-0.14 -0.067,-0.043 -0.067,-0.229 -0.137,-0.279 -0.131,-0.098 -0.312,-0.04 -0.423,-0.142 -0.288,-0.262 -0.356,-0.626 -0.562,-0.846 -0.324,-0.336 -0.514,-0.441 -0.986,-0.561 -0.822,-0.213 -1.514,0.125 -1.976,0.28 -0.269,0.091 -0.633,0.043 -0.846,0.139 -0.541,0.24 -0.943,0.763 -1.551,0.987 -0.494,0.181 -1.063,-0.1 -1.407,0.421 -0.146,1.039 0.435,2.098 0,2.958 -0.466,0.056 -0.689,-0.548 -1.271,-0.56 -0.122,-0.004 -0.493,0.192 -0.706,0.279 -0.866,0.364 -0.818,0.912 -0.7,1.834 0.253,0.549 1.422,0.175 1.548,0.845 -0.247,0.965 -1.337,0.425 -1.969,0.707 -0.104,0.044 -0.341,0.363 -0.566,0.56 -0.252,0.223 -0.611,0.412 -0.706,0.564 -0.244,0.415 -0.465,1.343 -0.419,1.69 0.079,0.64 0.984,0.807 0.842,1.834 0.359,0.256 0.967,0.256 0.985,0.842 -0.444,1.29 -2.096,1.381 -2.814,2.396 1.564,0.016 2.212,-0.88 3.381,-1.264 0.562,-0.144 0.422,0.415 0.988,0.276 0.833,-0.432 0.431,-1.884 1.263,-2.112 0.777,0.599 2.194,0.134 2.818,-0.286 0.285,0.179 0.566,0.455 0.99,0.712 0.326,0.19 0.843,0.3 1.128,0.565 0.158,0.146 0.443,0.856 0.564,0.985 0.549,0.566 0.376,1.206 0.557,2.11 0.041,0.175 0.076,0.315 0.144,0.563 0.063,0.225 0.102,0.593 0.141,0.704 0.152,0.359 0.585,0.644 0.704,0.982 0.07,0.203 -0.056,0.593 0,0.851 0.052,0.209 0.254,0.461 0.285,0.561 0.247,0.836 -0.008,1.299 -0.143,1.975 0.225,0.607 0.758,0.928 0.844,1.554 0.037,0.224 -0.108,0.448 -0.137,0.697 -0.096,0.842 -0.128,0.932 -0.28,1.414 -0.242,0.757 -0.577,1.26 -0.704,1.827 -0.193,0.843 -0.181,2.326 0,2.962 0.139,0.519 0.301,1.344 0.42,1.695 0.287,0.828 0.959,0.838 1.409,1.547 0.205,0.326 0.2,0.889 0.423,1.411 0.276,0.629 0.962,1.022 0.702,1.973 0.624,0.456 0.723,1.436 1.553,1.692 0.134,-0.656 -0.546,-1.231 -0.147,-1.692 0.529,0.145 0.514,0.705 0.707,0.98 0.088,0.122 0.341,0.167 0.427,0.288 0.095,0.124 0.045,0.286 0.139,0.424 0.276,0.396 0.743,0.615 0.846,1.124 0.055,0.263 -0.143,0.816 0,1.127 0.356,0.786 2.736,1.988 3.664,2.117 0.422,0.056 1.013,-0.127 1.406,0 0.371,0.111 0.676,0.703 1.275,0.983 0.537,0.258 1.343,0.196 1.687,0.417 0.645,0.428 0.75,1.226 1.13,1.554 0.217,0.196 0.55,0.272 0.845,0.425 0.781,0.403 1.153,0.755 1.834,0 h 0.137 c 0.305,0.59 0.81,1.023 0.708,1.973 -0.06,0.485 -0.412,0.713 -0.708,1.131 -0.217,0.302 -0.697,0.709 -0.846,1.124 -0.217,0.624 0.084,0.828 0,1.408 -0.06,0.403 -0.339,0.703 -0.281,0.985 0.076,0.382 0.791,1.018 1.127,1.552 0.38,0.608 0.754,1.433 0.987,1.832 0.21,0.363 0.412,0.953 0.564,1.126 0.814,0.932 2.116,0.96 2.536,2.111 0.565,1.562 -0.06,4.567 0,6.063 0.024,0.521 0.177,1.051 0.142,1.548 -0.052,0.683 -0.39,1.295 -0.426,1.975 -0.008,0.256 0.111,0.6 0.146,0.987 0.036,0.45 -0.063,0.98 0,1.406 0.048,0.383 0.254,0.611 0.28,0.991 0.075,1.299 -0.253,2.682 0,3.802 0.108,0.483 0.493,0.978 0.702,1.411 0.25,0.494 0.444,0.971 0.708,1.406 0.968,0.332 1.951,1.718 3.238,0.844 0.11,-0.484 -0.244,-0.755 -0.423,-0.987 -0.258,-0.337 -0.517,-0.44 -0.706,-0.844 -0.124,-0.265 -0.313,-0.64 -0.276,-1.124 0.034,-0.662 0.749,-1.131 0.703,-1.834 -0.04,-0.532 -0.612,-0.779 -0.569,-1.268 0.463,-0.715 0.904,-1.446 0.849,-2.678 0.684,-0.067 0.589,-0.916 0.988,-1.268 0.577,-0.217 1.291,-0.3 1.689,-0.703 0.167,-0.396 0.159,-0.976 0.144,-1.554 0.335,-0.175 0.853,-0.181 1.125,-0.421 0.518,-0.409 0.518,-1.051 0.846,-1.548 0.173,-0.268 0.537,-0.459 0.705,-0.709 0.198,-0.286 0.463,-0.705 0.566,-0.981 0.272,-0.767 -0.087,-1.122 0.276,-1.692 0.134,-0.213 0.434,-0.227 0.568,-0.282 0.042,-0.02 0.086,-0.25 0.139,-0.284 0.122,-0.075 0.319,-0.083 0.422,-0.139 0.165,-0.092 0.257,-0.213 0.423,-0.284 0.253,-0.1 0.762,-0.012 1.125,-0.28 0.755,-0.55 1.161,-2.117 1.272,-3.381 0.023,-0.276 -0.104,-0.82 0,-1.133 0.086,-0.262 0.572,-0.767 0.844,-1.122 0.343,-0.467 0.735,-0.715 0.842,-1.271 0.219,-1.117 -0.322,-1.18 -0.99,-1.683 z"
   id="path426"
   inkscape:connector-curvature="0"
   style="fill:#e0e0e0" />
			<path
   d="m 385.511,119.832 c -0.162,-0.899 -0.782,-1.12 -0.846,-1.97 -0.024,-0.305 0.194,-0.608 0.28,-0.985 0.096,-0.428 0.016,-0.831 0.147,-1.131 0.039,-0.102 0.315,-0.262 0.418,-0.423 0.139,-0.23 0.165,-0.553 0.276,-0.703 0.521,-0.672 1.544,-1.02 1.552,-1.828 -0.118,-0.304 -0.343,-0.502 -0.845,-0.431 -0.226,0.354 -0.419,0.552 -0.845,0.848 -0.729,0.513 -1.07,0.491 -1.549,1.268 -0.474,0.767 -0.419,1.357 -0.564,2.541 -0.091,0.751 -0.344,1.611 -0.28,1.827 0.202,0.676 1.352,1.288 2.256,0.987 z"
   id="path428"
   inkscape:connector-curvature="0"
   style="fill:#e0e0e0" />
			<path
   d="m 360.012,124.765 c -1.072,-0.264 -2.489,-0.008 -3.391,0 -0.161,0.809 0.061,1.854 0.846,2.114 1.287,0.431 3.372,-0.92 2.545,-2.114 z"
   id="path430"
   inkscape:connector-curvature="0"
   style="fill:#e0e0e0" />
			<path
   d="m 426.793,134.063 c -0.02,0.308 0.117,0.446 0.426,0.427 0.023,-0.308 -0.116,-0.452 -0.426,-0.427 z"
   id="path432"
   inkscape:connector-curvature="0"
   style="fill:#e0e0e0" />
			<path
   d="m 427.219,138.008 c 0.85,-0.322 1.801,-0.545 1.973,-1.548 -0.609,-0.28 -1.147,-0.636 -1.973,-0.703 0.039,0.808 -0.619,1.71 0,2.251 z"
   id="path434"
   inkscape:connector-curvature="0"
   style="fill:#e0e0e0" />
			<path
   d="m 426.658,141.249 c -0.257,0.316 -0.413,0.648 -0.71,0.847 -0.731,0.304 -1.632,0.78 -1.83,1.552 -0.142,0.556 -0.344,1.208 0.562,1.41 0.343,-0.271 0.257,-0.968 0.707,-1.128 0.601,-0.136 1.075,-0.463 1.552,-0.706 0.549,-0.279 1.059,-0.504 1.55,-0.846 -0.088,-1.605 0.422,-3.801 -1.126,-3.947 -0.201,0.676 0.168,1.379 0,1.975 -0.108,0.359 -0.502,0.587 -0.705,0.843 z"
   id="path436"
   inkscape:connector-curvature="0"
   style="fill:#e0e0e0" />
			<path
   d="m 369.162,141.249 c -0.21,0.215 -0.247,0.966 0.282,0.847 0.219,-0.215 0.253,-0.968 -0.282,-0.847 z"
   id="path438"
   inkscape:connector-curvature="0"
   style="fill:#e0e0e0" />
			<path
   d="m 371.424,143.363 c 0.478,0.062 0.797,-0.044 0.699,-0.563 -0.41,0.014 -0.794,0.051 -0.699,0.563 z"
   id="path440"
   inkscape:connector-curvature="0"
   style="fill:#e0e0e0" />
			<path
   d="m 420.593,148.999 c -0.202,0.204 -0.202,0.928 0,1.128 0.601,-0.018 0.623,-0.691 0.426,-1.128 -0.138,0 -0.28,0 -0.426,0 z"
   id="path442"
   inkscape:connector-curvature="0"
   style="fill:#e0e0e0" />
			<path
   d="m 331.54,151.818 c -0.138,-0.755 -0.916,-0.868 -1.689,-0.981 v 0.101 c -0.191,-0.079 -0.376,-0.164 -0.561,-0.225 v -0.162 c 0.02,-0.232 -0.869,-0.232 -0.846,0 0.292,0.079 0.398,0.352 0.846,0.286 v -0.117 l 0.561,0.222 v 0.171 c 0.272,0.481 0.922,1.182 1.689,0.705 z"
   id="path444"
   inkscape:connector-curvature="0"
   style="fill:#e0e0e0" />
			<path
   d="m 332.385,152.664 c 0.554,0.403 1.501,0.272 1.832,-0.282 -0.164,-0.684 -2.058,-0.936 -1.832,0.282 z"
   id="path446"
   inkscape:connector-curvature="0"
   style="fill:#e0e0e0" />
			<path
   d="m 421.583,152.382 c -1.512,-0.05 -0.718,2.322 -0.282,2.821 0.406,0.012 0.923,-0.08 1.132,0.133 -0.546,0.482 -0.074,1.198 0,1.696 0.055,0.397 -0.052,0.761 0,0.845 0.158,0.31 0.901,0.767 1.123,0.707 0.86,-0.219 0.618,-1.652 -0.143,-2.111 0.022,-0.35 0.022,-0.686 -0.139,-0.849 -0.454,-0.488 -1.148,-0.784 -1.406,-1.552 -0.186,-0.532 0.213,-1.216 -0.285,-1.69 z"
   id="path448"
   inkscape:connector-curvature="0"
   style="fill:#e0e0e0" />
			<path
   d="m 418.199,165.487 c 0.051,-0.594 -0.604,-0.934 -0.983,-0.983 -0.398,-0.06 -0.755,0.213 -1.125,0.144 -0.201,-0.05 -0.554,-0.223 -0.708,-0.29 -0.256,-0.102 -0.639,-0.13 -0.702,-0.422 0.004,-0.463 0.237,-0.701 0.138,-1.27 -0.498,-0.465 -0.766,-0.584 -0.984,-1.124 -0.288,-0.699 -0.152,-2.173 -0.421,-2.674 -0.244,-0.457 -0.972,-0.624 -1.271,-0.991 -0.159,-0.19 -0.193,-0.568 -0.28,-0.703 -0.172,-0.272 -0.261,-0.261 -0.424,-0.561 -0.036,-0.115 -0.117,-0.171 -0.28,-0.141 -0.651,1.376 1.358,1.863 0.704,3.242 -0.73,-0.163 -0.873,-0.918 -1.832,-0.847 -0.302,0.731 0.606,1.154 0.986,1.687 0.043,0.063 -0.036,0.213 0,0.28 0.016,0.048 0.245,0.091 0.279,0.137 0.044,0.067 -0.031,0.219 0,0.288 0.025,0.05 0.25,0.084 0.281,0.144 0.214,0.367 0.398,1.099 0.565,1.263 0.473,0.495 1.09,1.115 1.552,1.411 0.181,0.123 0.501,0.139 0.707,0.28 0.375,0.277 0.493,0.707 0.844,0.846 0.159,0.065 0.613,-0.071 0.983,0 0.259,0.054 0.491,0.261 0.704,0.284 0.457,0.052 0.814,-0.04 1.267,0 z"
   id="path450"
   inkscape:connector-curvature="0"
   style="fill:#e0e0e0" />
			<path
   d="m 419.329,158.3 c -0.966,0.962 -1.885,1.971 -3.238,2.535 -0.476,1.727 1.437,2.825 3.095,2.399 0.306,-0.732 0.984,-1.551 1.13,-2.263 0.072,-0.354 -0.169,-0.717 -0.144,-1.12 0.029,-0.455 0.417,-0.659 0.282,-1.131 -0.323,-0.188 -0.467,-0.563 -1.125,-0.42 z"
   id="path452"
   inkscape:connector-curvature="0"
   style="fill:#e0e0e0" />
			<path
   d="m 421.019,161.684 c -0.52,0.395 -0.548,1.533 -0.138,2.113 0.466,0 0.937,0 1.405,0 0.146,-0.443 -0.088,-1.18 0,-1.971 -0.227,-0.24 -0.828,-0.115 -1.267,-0.142 z"
   id="path454"
   inkscape:connector-curvature="0"
   style="fill:#e0e0e0" />
			<path
   d="m 431.164,162.666 c -0.702,-0.246 -1.418,-0.471 -1.973,-0.417 -0.369,0.028 -0.703,0.348 -1.123,0.276 -0.275,-0.246 -0.406,-0.634 -0.706,-0.842 -0.377,0 -0.811,-0.056 -0.987,0.143 0.135,0.596 0.287,1.068 0.703,1.408 0.16,0.129 0.489,0.052 0.702,0.136 0.225,0.095 0.383,0.337 0.568,0.427 0.258,0.127 0.493,0.014 0.702,0.139 0.46,0.276 0.399,0.878 0.565,1.415 0.688,0.16 1.09,0.642 1.828,0.558 0.514,-0.054 0.708,-0.628 1.27,-0.558 0.745,0.238 0.805,1.162 1.978,0.981 0.221,-0.688 -0.943,-1.093 -0.849,-2.112 -0.821,-0.604 -1.536,-1.142 -2.678,-1.554 z"
   id="path456"
   inkscape:connector-curvature="0"
   style="fill:#e0e0e0" />
			<path
   d="m 434.266,172.531 c -0.132,-0.234 -0.146,-0.651 -0.281,-0.844 -0.309,-0.436 -0.747,-0.62 -0.988,-1.131 -0.434,-0.899 -0.39,-1.919 -0.844,-2.392 -0.324,-0.336 -0.31,-0.939 -0.846,-0.987 -0.813,0.457 -0.296,2.245 -1.129,2.678 -0.877,-0.158 -1.509,-0.558 -1.829,-1.27 0.123,-0.344 0.328,-0.609 0.276,-1.124 -0.802,-0.403 -1.64,-0.699 -2.394,-0.423 -0.734,0.264 -0.774,1.275 -1.552,1.406 -0.308,-0.111 -0.544,-0.3 -0.982,-0.28 -0.708,0.469 -1.067,1.281 -1.975,1.548 -0.451,2.177 -3.271,1.158 -4.226,2.678 -0.349,0.552 -0.436,1.583 -0.424,2.255 0.02,0.951 0.485,1.903 0.424,2.962 -0.031,0.484 -0.443,0.963 -0.281,1.547 0.201,0.082 0.343,0.219 0.423,0.424 0.714,0.246 1.33,-0.436 2.108,-0.566 0.32,-0.05 0.762,0.111 1.134,0 0.422,-0.133 0.746,-0.555 1.122,-0.701 0.352,-0.135 0.875,-0.213 1.271,-0.284 1.73,-0.312 2.57,0 2.957,1.408 0.637,0.303 1.104,0.664 1.405,1.273 0.237,0.457 0.187,0.916 0.432,1.404 0.541,0.628 1.805,0.543 2.674,0.847 0.343,-0.403 1.063,-0.443 1.552,-0.703 0.443,-0.439 0.399,-1.007 0.702,-1.548 0.033,-0.056 0.238,-0.083 0.284,-0.143 0.08,-0.111 0.076,-0.324 0.137,-0.423 0.157,-0.237 0.291,-0.513 0.426,-0.708 0.314,-0.444 0.766,-0.705 0.983,-1.124 0.079,-0.146 0.11,-0.465 0.142,-0.564 0.187,-0.55 0.507,-1.264 0.568,-1.829 0.173,-1.604 -0.434,-2.142 -0.99,-3.104 -0.07,-0.126 -0.225,-0.186 -0.279,-0.282 z"
   id="path458"
   inkscape:connector-curvature="0"
   style="fill:#e0e0e0" />
			<path
   d="m 387.908,167.319 c -0.432,0.304 -0.514,0.767 -0.986,1.126 -0.25,0.192 -0.653,0.141 -0.847,0.284 -0.674,0.48 -0.402,1.055 -0.564,1.971 -0.068,0.379 -0.382,0.675 -0.418,1.124 -0.068,0.674 -0.013,1.043 0.418,1.556 1.536,0.313 1.884,-1.389 2.255,-2.396 0.414,-1.129 1.131,-2.65 0.565,-3.665 -0.146,0 -0.288,0 -0.423,0 z"
   id="path460"
   inkscape:connector-curvature="0"
   style="fill:#e0e0e0" />
			<path
   d="m 443.846,182.398 h -0.28 c 0.079,1.389 -1.02,1.615 -0.707,3.238 -0.423,0 -0.841,0 -1.267,0 -0.412,0.438 -0.753,0.991 -1.265,1.408 -0.925,0.755 -2.657,1.023 -2.117,2.679 1.445,0.659 1.88,-1.016 2.394,-1.548 0.068,-0.067 0.356,-0.096 0.427,-0.141 0.229,-0.155 0.314,-0.338 0.418,-0.566 0.02,-0.04 0.248,-0.098 0.285,-0.14 0.382,-0.461 0.698,-0.87 0.986,-1.271 0.537,-0.058 1.017,-0.411 1.268,-0.703 0.147,-0.165 0.162,-0.413 0.281,-0.56 0.45,-0.549 0.727,-0.524 0.707,-0.991 -0.037,-0.652 -0.806,-0.754 -1.13,-1.405 z"
   id="path462"
   inkscape:connector-curvature="0"
   style="fill:#e0e0e0" />
			<path
   d="m 429.616,184.227 c -0.425,0.396 -0.608,1.483 -0.142,1.975 1.07,0.04 1.453,-0.616 1.41,-1.688 -0.403,-0.122 -0.872,-0.172 -1.268,-0.287 z"
   id="path464"
   inkscape:connector-curvature="0"
   style="fill:#e0e0e0" />
		</g>
	</g>
	<g
   id="g466">
		<g
   id="g468">
			<radialGradient
   id="SVGID_32_"
   cx="271.85251"
   cy="110.5898"
   r="81.768898"
   gradientUnits="userSpaceOnUse">
				<stop
   offset="0"
   style="stop-color:#FFCD4D"
   id="stop471" />
				<stop
   offset="1"
   style="stop-color:#F6C338"
   id="stop473" />
			</radialGradient>
			<path
   d="m 298.549,155.97 -15.687,26.058 h 7.922 c 1.876,0 4.205,-1.315 5.172,-2.93 l 6.674,-11.105 c 0.788,-1.629 0.761,-3.997 -0.14,-5.499 l -3.941,-6.524 z"
   id="path475"
   inkscape:connector-curvature="0"
   style="fill:url(#SVGID_32_)" />
			<radialGradient
   id="SVGID_33_"
   cx="271.85251"
   cy="110.5928"
   r="81.765999"
   gradientUnits="userSpaceOnUse">
				<stop
   offset="0"
   style="stop-color:#0DA960"
   id="stop478" />
				<stop
   offset="1"
   style="stop-color:#03914B"
   id="stop480" />
			</radialGradient>
			<path
   d="m 291.378,144.101 c 0.968,1.608 0.968,4.245 0,5.86 l -17.618,29.456 c -0.681,1.456 0.026,2.61 1.774,2.61 h 7.328 l 15.687,-26.058 -7.171,-11.868 z"
   id="path482"
   inkscape:connector-curvature="0"
   style="fill:url(#SVGID_33_)" />
			<radialGradient
   id="SVGID_34_"
   cx="271.85059"
   cy="110.5928"
   r="81.7658"
   gradientUnits="userSpaceOnUse">
				<stop
   offset="0"
   style="stop-color:#4387FD"
   id="stop485" />
				<stop
   offset="1"
   style="stop-color:#4683EA"
   id="stop487" />
			</radialGradient>
			<path
   d="m 275.534,112.027 c -1.882,0 -2.629,1.321 -1.661,2.93 l 28.617,47.536 c 0.9,1.502 0.928,3.87 0.14,5.499 l 6.957,-11.579 -26.721,-44.386 h -7.332 z"
   id="path489"
   inkscape:connector-curvature="0"
   style="fill:url(#SVGID_34_)" />
			<radialGradient
   id="SVGID_35_"
   cx="271.85449"
   cy="110.5928"
   r="81.761299"
   gradientUnits="userSpaceOnUse">
				<stop
   offset="0"
   style="stop-color:#E04A3F"
   id="stop492" />
				<stop
   offset="1"
   style="stop-color:#CD372D"
   id="stop494" />
			</radialGradient>
			<path
   d="m 313.461,144.101 -17.505,-29.144 c -0.967,-1.608 -3.296,-2.93 -5.172,-2.93 h -7.918 l 26.721,44.386 3.874,-6.452 c 0.969,-1.615 0.969,-4.252 0,-5.86 z"
   id="path496"
   inkscape:connector-curvature="0"
   style="fill:url(#SVGID_35_)" />
			<linearGradient
   id="SVGID_36_"
   gradientUnits="userSpaceOnUse"
   x1="306.7402"
   y1="156.0459"
   x2="287.04169"
   y2="156.0459">
				<stop
   offset="0"
   style="stop-color:#231F20;stop-opacity:0.2"
   id="stop499" />
				<stop
   offset="1"
   style="stop-color:#F1F2F2;stop-opacity:0.25"
   id="stop501" />
			</linearGradient>
			<path
   d="M 302.49,162.493 291.378,144.1 c 0.968,1.608 0.968,4.245 0,5.86 l -3.911,6.514 15.163,11.518 c 0.788,-1.629 0.761,-3.997 -0.14,-5.499 z"
   id="path503"
   inkscape:connector-curvature="0"
   style="fill:url(#SVGID_36_)" />
		</g>
		<radialGradient
   id="SVGID_37_"
   cx="293.81839"
   cy="147.0273"
   r="28.6348"
   gradientUnits="userSpaceOnUse">
			<stop
   offset="0"
   style="stop-color:#FFFFFF;stop-opacity:0.1"
   id="stop506" />
			<stop
   offset="0.0896"
   style="stop-color:#FFFFFF;stop-opacity:0.091"
   id="stop508" />
			<stop
   offset="1"
   style="stop-color:#FFFFFF;stop-opacity:0"
   id="stop510" />
		</radialGradient>
		<path
   d="m 313.461,144.101 -17.505,-29.144 c -0.967,-1.608 -3.296,-2.93 -5.172,-2.93 h -7.918 -7.332 c -1.882,0 -2.629,1.321 -1.661,2.93 l 17.505,29.144 c 0.968,1.608 0.968,4.245 0,5.86 l -17.618,29.456 c -0.681,1.456 0.026,2.61 1.774,2.61 h 7.328 7.922 c 1.876,0 4.205,-1.315 5.172,-2.93 l 13.631,-22.685 3.874,-6.452 c 0.969,-1.614 0.969,-4.251 0,-5.859 z"
   id="path512"
   inkscape:connector-curvature="0"
   style="fill:url(#SVGID_37_)" />
	</g>
	<g
   id="g514">
		<g
   id="g516">
			<path
   d="M 406.374,158.767"
   id="path518"
   inkscape:connector-curvature="0"
   style="fill:#4d4d4d" />
			<path
   d="m 346.063,144.186 h 14.324 v 17.905 c -3.892,1.335 -8.162,1.996 -12.833,1.996 -5.112,0 -9.065,-1.482 -11.862,-4.448 -2.798,-2.966 -4.188,-7.205 -4.188,-12.706 0,-5.354 1.524,-9.52 4.587,-12.505 3.059,-2.988 7.341,-4.46 12.853,-4.46 2.092,0 4.059,0.188 5.909,0.588 1.864,0.39 3.483,0.884 4.862,1.484 l -2.852,7.036 c -2.388,-1.18 -5.017,-1.768 -7.879,-1.768 -2.608,0 -4.638,0.861 -6.068,2.557 -1.44,1.704 -2.146,4.132 -2.146,7.3 0,3.104 0.641,5.47 1.946,7.099 1.282,1.631 3.144,2.432 5.585,2.432 1.336,0 2.565,-0.117 3.681,-0.382 v -5.195 h -5.92 v -6.933 z"
   id="path520"
   inkscape:connector-curvature="0"
   style="fill:#4d4d4d" />
			<path
   d="m 384.158,146.648 c 0,-3.051 -0.599,-5.302 -1.798,-6.773 -1.2,-1.462 -3.04,-2.199 -5.49,-2.199 h -2.609 v 18.598 h 2 c 2.733,0 4.731,-0.79 5.994,-2.378 1.273,-1.568 1.903,-3.998 1.903,-7.248 m 9.308,-0.315 c 0,5.532 -1.514,9.804 -4.574,12.802 -3.04,2.997 -7.33,4.491 -12.853,4.491 h -10.738 v -33.197 h 11.485 c 5.321,0 9.435,1.369 12.336,4.093 2.903,2.714 4.344,6.658 4.344,11.811"
   id="path522"
   inkscape:connector-curvature="0"
   style="fill:#4d4d4d" />
			<path
   d="m 410.885,144.186 h 14.337 v 17.905 c -3.893,1.335 -8.172,1.996 -12.832,1.996 -5.112,0 -9.067,-1.482 -11.865,-4.448 -2.787,-2.966 -4.185,-7.205 -4.185,-12.706 0,-5.354 1.523,-9.52 4.584,-12.505 3.051,-2.988 7.341,-4.46 12.854,-4.46 2.083,0 4.061,0.188 5.922,0.588 1.841,0.39 3.462,0.884 4.838,1.484 l -2.838,7.036 c -2.388,-1.18 -5.02,-1.768 -7.879,-1.768 -2.62,0 -4.639,0.861 -6.079,2.557 -1.421,1.704 -2.137,4.132 -2.137,7.3 0,3.104 0.642,5.47 1.936,7.099 1.294,1.631 3.155,2.432 5.595,2.432 1.336,0 2.568,-0.117 3.684,-0.382 v -5.195 h -5.934 v -6.933 z"
   id="path524"
   inkscape:connector-curvature="0"
   style="fill:#4d4d4d" />
		</g>
	</g>
</g><g
   style="font-size:12px;font-family:OpenSans"
   id="text386"><path
     d="m 124.31266,64.313835 0,-8.589844 1.13672,0 0,8.589844 z"
     style="font-style:normal;font-variant:normal;font-weight:normal;font-stretch:normal;font-family:Arial;-inkscape-font-specification:Arial"
     id="path3606" /><path
     d="m 126.89079,62.456413 1.04296,-0.164062 c 0.0586,0.41797 0.22168,0.738282 0.48926,0.960937 0.26758,0.222657 0.6416,0.333985 1.12207,0.333985 0.48437,0 0.84375,-0.09863 1.07813,-0.295899 0.23437,-0.197264 0.35156,-0.428709 0.35156,-0.694336 0,-0.238279 -0.10352,-0.425779 -0.31055,-0.5625 -0.14453,-0.09375 -0.50391,-0.212888 -1.07812,-0.357422 -0.77344,-0.195309 -1.30957,-0.364254 -1.6084,-0.506836 -0.29883,-0.142574 -0.52539,-0.33984 -0.67969,-0.591796 -0.1543,-0.25195 -0.23144,-0.53027 -0.23144,-0.834961 0,-0.277339 0.0635,-0.534175 0.19043,-0.770508 0.12695,-0.236323 0.2998,-0.432612 0.51855,-0.588867 0.16406,-0.121088 0.38769,-0.223627 0.6709,-0.307618 0.2832,-0.08398 0.58691,-0.12597 0.91113,-0.125976 0.48828,6e-6 0.91699,0.07032 1.28613,0.210937 0.36914,0.140631 0.6416,0.331061 0.81739,0.571289 0.17577,0.24024 0.29687,0.561529 0.36328,0.963868 l -1.03125,0.140625 c -0.0469,-0.320308 -0.18262,-0.570308 -0.40723,-0.75 -0.22461,-0.179682 -0.54199,-0.269526 -0.95215,-0.269532 -0.48437,6e-6 -0.83008,0.08008 -1.03711,0.240235 -0.20703,0.160161 -0.31054,0.347661 -0.31054,0.5625 0,0.136723 0.043,0.25977 0.1289,0.36914 0.0859,0.113286 0.22071,0.207036 0.4043,0.28125 0.10547,0.03907 0.41601,0.128911 0.93164,0.269532 0.74609,0.199222 1.2666,0.362308 1.56152,0.489257 0.29492,0.126957 0.52637,0.311527 0.69434,0.553711 0.16796,0.24219 0.25195,0.542971 0.25195,0.902344 0,0.351564 -0.10254,0.682618 -0.30761,0.993164 -0.20509,0.310548 -0.50098,0.550782 -0.8877,0.720703 -0.38672,0.169922 -0.82422,0.254883 -1.3125,0.254883 -0.80859,0 -1.4248,-0.167969 -1.84863,-0.503906 -0.42383,-0.335937 -0.69434,-0.833983 -0.81152,-1.494141 z"
     style="font-style:normal;font-variant:normal;font-weight:normal;font-stretch:normal;font-family:Arial;-inkscape-font-specification:Arial"
     id="path3608" /><path
     d="m 133.30094,64.313835 0,-6.222656 0.94922,0 0,0.943359 c 0.24219,-0.4414 0.46582,-0.732416 0.6709,-0.873047 0.20507,-0.140618 0.43066,-0.210931 0.67676,-0.210937 0.35546,6e-6 0.71679,0.113287 1.08398,0.339844 l -0.36328,0.978515 c -0.25782,-0.152338 -0.51563,-0.22851 -0.77344,-0.228515 -0.23047,5e-6 -0.4375,0.06934 -0.62109,0.208007 -0.1836,0.138677 -0.31446,0.33106 -0.39258,0.577149 -0.11719,0.375004 -0.17578,0.78516 -0.17578,1.230469 l 0,3.257812 z"
     style="font-style:normal;font-variant:normal;font-weight:normal;font-stretch:normal;font-family:Arial;-inkscape-font-specification:Arial"
     id="path3610" /><path
     d="m 141.38102,63.546257 c -0.39063,0.332032 -0.76661,0.566406 -1.12793,0.703125 -0.36133,0.136719 -0.74903,0.205078 -1.16309,0.205078 -0.68359,0 -1.20898,-0.166992 -1.57617,-0.500976 -0.36719,-0.333984 -0.55078,-0.760741 -0.55078,-1.280274 0,-0.304685 0.0693,-0.583005 0.20801,-0.834961 0.13867,-0.25195 0.32031,-0.454098 0.54492,-0.606445 0.22461,-0.152341 0.47754,-0.267575 0.75879,-0.345703 0.20703,-0.05468 0.51953,-0.107419 0.9375,-0.158203 0.85156,-0.101559 1.47851,-0.222653 1.88086,-0.363282 0.004,-0.144527 0.006,-0.236324 0.006,-0.27539 -1e-5,-0.429683 -0.0996,-0.732417 -0.29883,-0.908203 -0.26954,-0.238276 -0.66993,-0.357417 -1.20117,-0.357422 -0.4961,5e-6 -0.86231,0.08692 -1.09863,0.260742 -0.23633,0.173833 -0.41114,0.48145 -0.52442,0.922852 l -1.03125,-0.140625 c 0.0937,-0.441402 0.24805,-0.797847 0.46289,-1.069336 0.21484,-0.271479 0.52539,-0.480463 0.93164,-0.626954 0.40625,-0.146478 0.87695,-0.21972 1.41211,-0.219726 0.53125,6e-6 0.96289,0.06251 1.29492,0.1875 0.33203,0.125006 0.57617,0.282232 0.73243,0.47168 0.15624,0.189458 0.26562,0.428716 0.32812,0.717773 0.0351,0.179692 0.0527,0.503911 0.0527,0.972656 l 0,1.40625 c -1e-5,0.980471 0.0224,1.600587 0.0674,1.860352 0.0449,0.259766 0.13378,0.508789 0.2666,0.74707 l -1.10156,0 c -0.10938,-0.21875 -0.1797,-0.474609 -0.21094,-0.767578 z m -0.0879,-2.355469 c -0.38282,0.156253 -0.95704,0.289066 -1.72266,0.398438 -0.43359,0.0625 -0.74023,0.132815 -0.91992,0.210937 -0.17969,0.07813 -0.31836,0.192385 -0.41601,0.342774 -0.0977,0.150392 -0.14649,0.317384 -0.14649,0.500976 0,0.281252 0.10644,0.515626 0.31934,0.703125 0.21289,0.187501 0.52441,0.281251 0.93457,0.28125 0.40624,1e-6 0.76757,-0.08887 1.08398,-0.266601 0.3164,-0.177734 0.54883,-0.420897 0.69727,-0.729492 0.11327,-0.23828 0.16991,-0.589842 0.16992,-1.054688 z"
     style="font-style:normal;font-variant:normal;font-weight:normal;font-stretch:normal;font-family:Arial;-inkscape-font-specification:Arial"
     id="path3612" /><path
     d="m 148.25993,62.309929 1.08984,0.134766 c -0.17188,0.63672 -0.49024,1.13086 -0.95508,1.482421 -0.46485,0.351563 -1.0586,0.527344 -1.78125,0.527344 -0.91016,0 -1.63184,-0.280273 -2.16504,-0.84082 -0.5332,-0.560546 -0.7998,-1.346678 -0.7998,-2.358399 0,-1.046871 0.26953,-1.85937 0.80859,-2.4375 0.53906,-0.578119 1.23828,-0.867181 2.09766,-0.867187 0.83202,6e-6 1.51171,0.283209 2.03906,0.849609 0.52734,0.566411 0.79101,1.363286 0.79102,2.390625 -1e-5,0.0625 -0.002,0.156253 -0.006,0.28125 l -4.64063,0 c 0.0391,0.683596 0.23242,1.207033 0.58008,1.570313 0.34765,0.363282 0.78125,0.544922 1.30078,0.544922 0.38672,0 0.71679,-0.101562 0.99024,-0.304688 0.27343,-0.203124 0.49022,-0.527342 0.65039,-0.972656 z m -3.46289,-1.705078 3.4746,0 c -0.0469,-0.523433 -0.17969,-0.916011 -0.39843,-1.177735 -0.33594,-0.406244 -0.77149,-0.609369 -1.30664,-0.609375 -0.48438,6e-6 -0.89161,0.162115 -1.22168,0.486329 -0.33008,0.324223 -0.5127,0.757816 -0.54785,1.300781 z"
     style="font-style:normal;font-variant:normal;font-weight:normal;font-stretch:normal;font-family:Arial;-inkscape-font-specification:Arial"
     id="path3614" /><path
     d="m 150.65641,64.313835 0,-8.589844 1.05469,0 0,8.589844 z"
     style="font-style:normal;font-variant:normal;font-weight:normal;font-stretch:normal;font-family:Arial;-inkscape-font-specification:Arial"
     id="path3616" /></g>



</svg>